Coordinates
version=1
nRows=7
nColumns=33
inDegrees=yes

Units are S.I. units (second, meters, Newtons, ...)
Angles are in degrees.

endheader
time	ground_thorax_rot_x	ground_thorax_rot_y	ground_thorax_rot_z	ground_thorax_tx	ground_thorax_ty	ground_thorax_tz	clav_prot_r	clav_elev_r	scapula_abduction_r	scapula_elevation_r	scapula_upward_rot_r	scapula_winging_r	shoulder_elv_r	plane_of_elev_r	axial_rot_r	elbow_flexion_r	pro_sup_r	wrist_flex_r	wrist_dev_r	clav_prot_l	clav_elev_l	scapula_abduction_l	scapula_elevation_l	scapula_upward_rot_l	scapula_winging_l	shoulder_elv_l	plane_of_elev_l	axial_rot_l	elbow_flexion_l	pro_sup_l	wrist_flex_l	wrist_dev_l
      2.56000000	    -15.92818216	    -34.21160633	     59.90328537	     88.77838311	    784.16714986	    -43.96022865	     28.43192650	    -45.00000000	     39.53764343	    -45.00000000	    -45.00000000	   -100.37268495	  -2808.24844769	     18.71440149	   -138.45729069	   1800.75926516	   -188.51962417	     11.44991847	     12.00877511	     -1.27689331	     29.50952763	    -25.39316793	    -45.00000000	    -45.00000000	  -3521.71305739	   -452.26809466	    134.11051076	   -106.62190457	   1790.00969730	     43.95599418	     11.04467160	    -13.56635626
      2.57000000	    -15.71832234	    -34.04191112	     60.08938676	     88.78168678	    784.30541908	    -44.31977071	     28.75451406	    -45.00000000	     39.81139208	    -45.00000000	    -45.00000000	   -100.53013184	  -2808.35321307	     18.84746884	   -139.16416927	   1800.92733156	   -188.32392488	     11.60224780	     11.77456624	     -1.32742806	     29.41172221	    -25.36327534	    -45.00000000	    -45.00000000	  -3521.43467571	   -452.15081575	    134.06584728	   -106.80537768	   1789.87575378	     43.82891611	     11.40727901	    -14.01570816
      2.58000000	    -15.87683408	    -33.58872952	     59.66412924	     88.60283658	    784.52503828	    -44.65379507	     28.74109847	    -45.00000000	     39.68946482	    -45.00000000	    -45.00000000	   -100.22200621	  -2807.97348160	     18.90895448	   -138.88530492	   1800.88776274	   -188.07317047	     11.53906046	     11.88726657	     -1.41989660	     29.76054813	    -25.41648053	    -45.00000000	    -45.00000000	  -3521.77320418	   -452.31614308	    134.19044199	   -106.95183356	   1790.27256533	     43.73784392	     11.04350369	    -13.35957007
      2.59000000	    -15.90385293	    -33.36338497	     59.70110655	     88.25216152	    784.81785033	    -44.96219349	     28.58769379	    -45.00000000	     39.92167516	    -45.00000000	    -45.00000000	   -100.41977671	  -2808.24480644	     19.04444420	   -139.36118769	   1801.24169916	   -188.10701144	     11.65395901	     11.62558129	     -1.21026857	     29.30513323	    -25.52743129	    -45.00000000	    -45.00000000	  -3521.29195445	   -452.08584873	    133.89381690	   -106.96699344	   1790.16390044	     43.57285707	     11.44433262	    -14.10173560
      2.60000000	    -15.95224586	    -33.09751132	     59.73943686	     87.74699014	    785.16796914	    -45.23704149	     28.67716167	    -45.00000000	     39.69857422	    -45.00000000	    -45.00000000	   -100.38167937	  -2807.95783753	     19.02040110	   -139.53379465	   1801.17891094	   -188.16056105	     11.78058451	     11.41721036	     -1.28954341	     29.66122998	    -26.05274007	    -45.00000000	    -45.00000000	  -3521.00222377	   -452.17649179	    134.13363358	   -106.78724654	   1790.10115113	     43.58143679	     11.71140379	    -13.87213341
      2.61000000	    -16.02901412	    -32.84130300	     59.47219774	     87.09886874	    785.56714837	    -45.48055837	     28.48067626	    -45.00000000	     39.79867739	    -45.00000000	    -45.00000000	   -100.29241726	  -2807.88583194	     19.16785973	   -139.86268407	   1801.32749034	   -188.30091118	     11.81343454	     11.35272009	     -1.10753294	     29.54657105	    -25.94571045	    -45.00000000	    -45.00000000	  -3521.10844083	   -451.95977423	    134.12431591	   -106.93412370	   1790.20280700	     43.58902882	     11.63544534	    -14.18377782
      2.62000000	    -16.21228487	    -32.54407068	     59.16432357	     86.31856580	    786.00704374	    -45.69315740	     28.45680465	    -45.00000000	     39.77104016	    -45.00000000	    -45.00000000	   -100.22238729	  -2807.74491819	     19.30092808	   -140.16740672	   1801.35838336	   -188.45611843	     11.91594008	     11.20168744	     -1.01946464	     29.60770481	    -26.12279569	    -45.00000000	    -45.00000000	  -3520.95037339	   -451.86361386	    134.00751818	   -106.99339656	   1790.35792730	     43.71461286	     11.67148366	    -14.19986694
